<svg width="100" height="100" viewBox="0 0 100 100" fill="none" xmlns="http://www.w3.org/2000/svg">
  <defs>
    <linearGradient id="leftGradient" x1="0%" y1="0%" x2="0%" y2="100%">
      <stop offset="0%" style="stop-color:#00ff88;stop-opacity:1" />
      <stop offset="100%" style="stop-color:#ffff00;stop-opacity:1" />
    </linearGradient>
    <linearGradient id="rightTopGradient" x1="0%" y1="0%" x2="100%" y2="100%">
      <stop offset="0%" style="stop-color:#00ffff;stop-opacity:1" />
      <stop offset="100%" style="stop-color:#0088ff;stop-opacity:1" />
    </linearGradient>
    <linearGradient id="rightBottomGradient" x1="0%" y1="0%" x2="100%" y2="100%">
      <stop offset="0%" style="stop-color:#0088ff;stop-opacity:1" />
      <stop offset="100%" style="stop-color:#0044ff;stop-opacity:1" />
    </linearGradient>
  </defs>
  
  <!-- Left vertical element -->
  <path d="M15 10 L25 10 L35 85 L25 90 Z" fill="url(#leftGradient)" />
  
  <!-- Right top curved element -->
  <path d="M40 15 Q75 15 75 35 Q75 45 65 50 L45 50 Q35 45 35 35 Q35 25 40 15 Z" fill="url(#rightTopGradient)" />
  
  <!-- Right bottom curved element -->
  <path d="M40 55 Q75 55 75 75 Q75 85 65 90 L45 90 Q35 85 35 75 Q35 65 40 55 Z" fill="url(#rightBottomGradient)" />
</svg>